<svg width="1em" height="1em" viewBox="0 0 28 33" fill="none" xmlns="http://www.w3.org/2000/svg">
<g clip-path="url(#clip0_3_51)">
<path d="M27.6438 24.3235C27.8635 23.9455 28 23.5197 28 23.1373V9.86267C28 9.48025 27.8637 9.05448 27.6439 8.67651L14 16.5L27.6438 24.3235Z" fill="#822C98"/>
<path d="M15.2124 31.8602L26.7875 25.2229C27.121 25.0317 27.424 24.7015 27.6437 24.3235L14 16.5L0.356201 24.3236C0.5759 24.7015 0.879051 25.0318 1.2124 25.2229L12.7876 31.8602C13.4543 32.2426 14.5456 32.2426 15.2124 31.8602Z" fill="#68217A"/>
<path d="M27.6439 8.67642C27.4241 8.29836 27.1209 7.9682 26.7876 7.77699L15.2124 1.13975C14.5456 0.757331 13.4544 0.757331 12.7876 1.13975L1.21242 7.77699C0.545542 8.15932 0 9.09791 0 9.86266V23.1372C0 23.5196 0.136431 23.9455 0.356222 24.3235L14 16.5L27.6439 8.67642Z" fill="#953DAC"/>
<path d="M14.0001 25.7696C8.85366 25.7696 4.66675 21.6113 4.66675 16.5C4.66675 11.3887 8.85366 7.23035 14.0001 7.23035C17.3209 7.23035 20.418 9.00521 22.0827 11.8623L18.0434 14.1837C17.2103 12.7536 15.6609 11.8652 14.0001 11.8652C11.4268 11.8652 9.33341 13.9443 9.33341 16.5C9.33341 19.0556 11.4268 21.1348 14.0001 21.1348C15.661 21.1348 17.2105 20.2464 18.0437 18.816L22.0829 21.1374C20.4183 23.9947 17.3211 25.7696 14.0001 25.7696Z" fill="white"/>
<path d="M20.7397 17.0875V17.7261H24.6444V17.0875H20.7397ZM20.9628 15.2544V15.893H24.8675V15.2544H20.9628ZM21.8809 14.1618L21.0643 18.8187H21.8535L22.67 14.1618H21.8809ZM23.6676 14.1618L22.851 18.8187H23.6402L24.4568 14.1618H23.6676Z" fill="white"/>
</g>
<defs>
<clipPath id="clip0_3_51">
<rect width="28" height="31.2941" fill="white" transform="translate(0 0.852936)"/>
</clipPath>
</defs>
</svg>
