<svg width="1em" height="1em" viewBox="0 0 28 33" fill="none" xmlns="http://www.w3.org/2000/svg">
<path d="M0 0.624664C9.33361 0.623845 18.6664 0.623026 28 0.624664C27.4863 6.42949 26.9808 12.2343 26.4458 18.0375C26.1279 21.7465 25.8001 25.4556 25.4544 29.1621C23.4626 29.6898 21.4906 30.2911 19.4996 30.8212C17.6709 31.3579 15.8275 31.8437 13.998 32.3763H13.9439C12.2028 31.8585 10.4446 31.403 8.70356 30.8851C6.64872 30.3313 4.61191 29.7135 2.55625 29.1621C2.28834 26.3838 2.04664 23.6039 1.80822 20.824C1.35842 15.6877 0.86929 10.5547 0.436693 5.41764C0.286759 3.8716 0.179429 2.32064 0 0.777876V0.624664ZM14.0438 2.91464C14.0242 4.02973 14.0586 5.14563 14.0242 6.25989C10.8223 6.24842 7.6196 6.25744 4.41773 6.26071C4.47263 7.34303 4.61764 8.41796 4.76676 9.49126C7.74578 9.60187 10.7289 9.48717 13.7079 9.57647C11.1017 10.7456 8.4635 11.8468 5.84579 12.9914C5.6213 13.0913 5.38124 13.1667 5.18051 13.3125C5.20263 14.5014 5.39435 15.6836 5.47874 16.87C7.06657 16.8643 8.65358 16.8389 10.2414 16.8364C11.5138 16.8298 12.787 16.8552 14.0594 16.8274C13.9988 18.7823 14.0782 20.7396 14.0184 22.6945C13.1623 22.5675 12.3167 22.3766 11.4638 22.225C10.7912 22.0784 10.1021 22.0022 9.4393 21.8096C9.34508 20.8715 9.27953 19.9301 9.19596 18.9912C9.00424 18.9322 8.80105 18.9379 8.60278 18.9347C7.64091 18.9404 6.67822 18.9314 5.71552 18.9461C5.80974 20.7511 5.97197 22.5536 6.24808 24.3413C7.19684 24.5887 8.14724 24.8312 9.09437 25.0893C10.5454 25.4842 12.0144 25.8128 13.4679 26.2011C13.6407 26.238 13.8152 26.3019 13.9947 26.2872C14.0914 27.4743 14.0168 28.6689 14.0348 29.8594C14.3699 29.8053 14.6993 29.7225 15.0229 29.6226C17.7742 28.8754 20.5221 28.1142 23.2717 27.3596C23.4086 26.2782 23.4725 25.1893 23.5806 24.1053C23.8666 20.8101 24.155 17.5148 24.4548 14.2203C24.8063 10.4515 25.1103 6.67856 25.4642 2.90973C21.6569 2.913 17.8504 2.90235 14.0438 2.91464Z" fill="#0170BA"/>
<path d="M14.0438 2.91464C17.8503 2.90235 21.6568 2.913 25.4642 2.90972C25.1102 6.67856 24.8063 10.4515 24.4548 14.2203C24.1549 17.5148 23.8665 20.8101 23.5806 24.1053C23.4724 25.1893 23.4085 26.2781 23.2717 27.3596C20.5221 28.1142 17.7741 28.8754 15.0229 29.6226C14.6992 29.7225 14.3699 29.8053 14.0348 29.8594C14.0168 28.6689 14.0913 27.4743 13.9946 26.2872C14.0192 26.2822 14.0692 26.2724 14.0938 26.2675C16.6525 25.6252 19.194 24.9181 21.747 24.2528C22.0698 20.6314 22.4278 17.0117 22.6548 13.383C20.4836 13.3945 18.3116 13.3879 16.1404 13.3969C15.8242 13.3986 15.5079 13.3969 15.1933 13.374C16.3616 12.7726 17.5906 12.2958 18.7901 11.7591C19.9412 11.2372 21.1063 10.7481 22.2615 10.236C22.4843 10.1336 22.7219 10.0484 22.9178 9.896C22.9948 9.61333 22.9907 9.31756 23.021 9.02835C23.0874 8.11072 23.2053 7.198 23.2496 6.27955C20.1747 6.25497 17.0998 6.27628 14.0241 6.25989C14.0585 5.14562 14.0241 4.02972 14.0438 2.91464Z" fill="#29A9DF"/>
<path d="M14.0593 16.8274C15.5439 16.802 17.0293 16.8421 18.5147 16.8323C18.4319 18.3505 18.3058 19.8662 18.2271 21.3844C17.3169 21.6818 16.3927 21.9333 15.475 22.2086C14.9859 22.3577 14.4837 22.4757 14.0183 22.6945C14.0781 20.7396 13.9986 18.7823 14.0593 16.8274Z" fill="#29A9DF"/>
<path d="M4.41772 6.26071C7.6196 6.25743 10.8223 6.24842 14.0242 6.25989C14.0659 9.78293 14.0135 13.306 14.0594 16.8274C12.787 16.8552 11.5138 16.8298 10.2414 16.8364C8.65357 16.8389 7.06656 16.8642 5.47873 16.87C5.39435 15.6836 5.20263 14.5014 5.1805 13.3125C5.38124 13.1667 5.62129 13.0913 5.84579 12.9914C8.46349 11.8468 11.1017 10.7456 13.7079 9.57647C10.7289 9.48716 7.74577 9.60186 4.76675 9.49126C4.61764 8.41796 4.47262 7.34302 4.41772 6.26071Z" fill="#CFCFCF"/>
<path d="M5.71558 18.9461C6.67827 18.9314 7.64096 18.9404 8.60283 18.9347C8.80111 18.9379 9.0043 18.9322 9.19601 18.9912C9.27958 19.9301 9.34513 20.8715 9.43935 21.8096C10.1022 22.0022 10.7912 22.0784 11.4639 22.225C12.3168 22.3766 13.1623 22.5675 14.0185 22.6945C14.1004 23.8841 13.957 25.082 14.0939 26.2675C14.0693 26.2724 14.0193 26.2823 13.9947 26.2872C13.8153 26.3019 13.6408 26.238 13.4679 26.2011C12.0144 25.8128 10.5454 25.4842 9.09442 25.0893C8.14729 24.8313 7.19689 24.5887 6.24813 24.3413C5.97202 22.5536 5.8098 20.7511 5.71558 18.9461Z" fill="#CFCFCF"/>
<path d="M14.024 6.25989C17.0997 6.27627 20.1746 6.25497 23.2495 6.27955C23.2053 7.198 23.0873 8.11071 23.0209 9.02834C22.9906 9.31756 22.9947 9.61333 22.9177 9.89599C22.7219 10.0484 22.4843 10.1336 22.2614 10.236C21.1062 10.7481 19.9411 11.2372 18.79 11.7591C17.5905 12.2958 16.3615 12.7726 15.1932 13.374C15.5078 13.3969 15.8241 13.3986 16.1403 13.3969C18.3115 13.3879 20.4835 13.3945 22.6547 13.383C22.4277 17.0117 22.0697 20.6314 21.7469 24.2528C19.1939 24.9181 16.6524 25.6252 14.0937 26.2675C13.9569 25.0819 14.1002 23.8841 14.0183 22.6945C14.4837 22.4757 14.9859 22.3577 15.475 22.2086C16.3927 21.9333 17.3169 21.6818 18.2271 21.3844C18.3058 19.8662 18.4319 18.3505 18.5147 16.8323C17.0293 16.8421 15.5439 16.802 14.0593 16.8274C14.0134 13.306 14.0658 9.78293 14.024 6.25989Z" fill="white"/>
</svg>
