<svg width="1em" height="1em" viewBox="0 0 44 44" fill="none" xmlns="http://www.w3.org/2000/svg">
<path d="M22 41.25C32.6315 41.25 41.25 32.6315 41.25 22C41.25 11.3685 32.6315 2.75 22 2.75C11.3685 2.75 2.75 11.3685 2.75 22C2.75 32.6315 11.3685 41.25 22 41.25Z" fill="#1794D4"/>
<path d="M24.75 9.625H22V12.375H24.75V9.625Z" fill="white"/>
<path d="M13.75 13.75H16.5V16.5H13.75V13.75Z" fill="white"/>
<path d="M8.25213 23.2944C8.4871 27.2837 10.8629 33 19.25 33C28.6 33 32.7708 26.125 33.6875 22.6875C34.8333 22.6875 37.4 22 38.5 19.25C37.8125 18.5625 35.0625 18.5625 33.6875 19.25C33.6875 18.15 33 15.8125 31.625 15.125C30.7083 16.0417 29.2875 18.425 30.9375 20.625C30.25 22 28.4167 22 27.5 22H9.54648C8.81845 22 8.20931 22.5676 8.25213 23.2944Z" fill="white"/>
<path d="M12.375 17.875H9.625V20.625H12.375V17.875Z" fill="white"/>
<path d="M13.75 17.875H16.5V20.625H13.75V17.875Z" fill="white"/>
<path d="M20.625 17.875H17.875V20.625H20.625V17.875Z" fill="white"/>
<path d="M22 17.875H24.75V20.625H22V17.875Z" fill="white"/>
<path d="M28.875 17.875H26.125V20.625H28.875V17.875Z" fill="white"/>
<path d="M20.625 13.75H17.875V16.5H20.625V13.75Z" fill="white"/>
<path d="M22 13.75H24.75V16.5H22V13.75Z" fill="white"/>
</svg>
