<svg width="1em" height="1em" viewBox="0 0 36 36" fill="none" xmlns="http://www.w3.org/2000/svg">
<g clip-path="url(#clip0_131_97)">
<path d="M36 8.118C35.4761 7.91983 34.8977 7.92026 34.3741 8.11922C33.8504 8.31818 33.4177 8.70191 33.1575 9.198L27.9825 16.3545L27.2325 17.355L21.228 9.189C20.9835 8.71372 20.5742 8.34377 20.0768 8.14831C19.5793 7.95286 19.0277 7.94528 18.525 8.127L26.262 18.507L19.065 27.8835C19.5825 28.07 20.1485 28.0725 20.6676 27.8905C21.1867 27.7085 21.6272 27.3533 21.915 26.8845L27.279 19.6395L32.673 26.8545C32.9194 27.3213 33.3288 27.6813 33.8233 27.8661C34.3177 28.0508 34.8629 28.0474 35.355 27.8565L32.562 24.15L28.779 19.2255C28.674 19.1318 28.5899 19.0169 28.5323 18.8884C28.4748 18.76 28.445 18.6208 28.445 18.48C28.445 18.3392 28.4748 18.2 28.5323 18.0715C28.5899 17.9431 28.674 17.8282 28.779 17.7345L35.985 8.1165L36 8.118ZM0.00301799 18.636L0.633018 21.7485C2.36402 27.903 9.42002 30.4635 14.274 26.6535C17.1165 24.42 17.826 21.258 17.6865 17.694H1.67402C1.41452 11.3295 6.00752 7.4865 11.88 9.45C12.832 9.79267 13.6841 10.3661 14.3601 11.119C15.036 11.8719 15.5146 12.7807 15.753 13.764C16.0635 14.763 16.575 14.934 17.514 14.646C17.3575 13.4274 16.9268 12.2602 16.2541 11.2321C15.5815 10.204 14.6844 9.34188 13.6305 8.7105C11.8896 7.75825 9.89226 7.38083 7.92395 7.63219C5.95565 7.88355 4.11722 8.75082 2.67152 10.11C1.24206 11.7189 0.378132 13.7513 0.211518 15.897C0.211518 16.2495 0.091518 16.5795 0.010518 16.896C0.00321604 17.4755 -0.000284036 18.055 1.79944e-05 18.6345L0.00301799 18.636ZM1.69352 19.065H16.1745C16.0845 23.679 13.173 26.952 9.28952 26.982C4.96652 27.042 1.87352 23.841 1.68302 19.086L1.69352 19.065Z" fill="currentColor"/>
</g>
<defs>
<clipPath id="clip0_131_97">
<rect width="36" height="36" fill="white" transform="matrix(1 0 0 -1 0 36)"/>
</clipPath>
</defs>
</svg>
