<svg width="1em" height="1em" viewBox="0 0 28 29" fill="none" xmlns="http://www.w3.org/2000/svg">
<path d="M26.7617 13.3188L15.181 1.73863C14.5142 1.07154 13.4326 1.07154 12.7652 1.73863L10.3607 4.14374L13.4109 7.19401C14.1199 6.95442 14.9328 7.11521 15.4977 7.6804C16.066 8.24906 16.2254 9.06886 15.9797 9.7804L18.92 12.7204C19.6316 12.475 20.4519 12.6338 21.02 13.2028C21.8138 13.9966 21.8138 15.2828 21.02 16.0772C20.2256 16.8713 18.9394 16.8713 18.1447 16.0772C17.5477 15.4797 17.3999 14.6022 17.7027 13.8667L14.9605 11.1247V18.3403C15.1539 18.4362 15.3366 18.5637 15.4977 18.7248C16.2915 19.5186 16.2915 20.8049 15.4977 21.5996C14.7038 22.3931 13.4167 22.3931 12.6235 21.5996C11.8297 20.8046 11.8297 19.5183 12.6235 18.7248C12.8198 18.5288 13.0469 18.3804 13.2894 18.2811V10.9983C13.0469 10.899 12.8203 10.752 12.6235 10.5546C12.0222 9.9536 11.8776 9.07088 12.1859 8.33249L9.1789 5.32494L1.23787 13.2651C0.570776 13.9328 0.570776 15.0144 1.23787 15.6815L12.8192 27.2619C13.486 27.929 14.5673 27.929 15.235 27.2619L26.7617 15.7352C27.4288 15.0681 27.4288 13.9859 26.7617 13.3188Z" fill="#F05133"/>
</svg>
