<svg width="1em" height="1em" viewBox="0 0 28 29" fill="none" xmlns="http://www.w3.org/2000/svg">
<path d="M11.3167 1.65499C7.75836 2.44832 4.84169 4.41999 2.83502 7.40665C-0.676644 12.6683 0.0233558 19.7267 4.50336 24.23C5.84502 25.5833 7.88669 26.89 9.42669 27.3917C9.99836 27.5783 10.0684 27.5783 10.325 27.4033C10.605 27.2167 10.6167 27.17 10.6167 25.8283V24.4517L9.59002 24.51C8.38836 24.5683 7.45502 24.3583 6.89502 23.88C6.69669 23.7167 6.31169 23.1567 6.04336 22.6433C5.60002 21.78 5.27336 21.3833 4.36336 20.5783C4.06002 20.31 4.04836 20.2983 4.25836 20.1467C4.76002 19.7733 5.77502 20.135 6.41669 20.905C7.53669 22.27 7.96836 22.6317 8.61002 22.7717C9.18169 22.8883 9.70669 22.8417 10.5 22.6083C10.605 22.5733 10.745 22.3283 10.815 22.0483C10.885 21.78 11.0717 21.3717 11.2234 21.15L11.5034 20.7417L10.5584 20.555C8.57502 20.1467 7.35002 19.435 6.54502 18.2217C5.79836 17.1017 5.55336 16.1333 5.54169 14.325C5.54169 12.6217 5.72836 11.9217 6.46336 10.965C6.79002 10.545 6.82502 10.4167 6.73169 10.1717C6.55669 9.75165 6.60336 7.97832 6.79002 7.44165C6.94169 7.04499 7.02336 6.97499 7.33836 6.93999C7.86336 6.88165 8.84336 7.21999 9.83502 7.77999L10.6867 8.26999L11.4334 8.09499C12.495 7.84999 15.68 7.86165 16.6367 8.09499L17.36 8.28165L18.0367 7.87332C18.935 7.33665 20.0784 6.91665 20.65 6.91665C21.105 6.91665 21.105 6.92832 21.2917 7.52332C21.49 8.21165 21.525 9.45999 21.35 10.055C21.2567 10.405 21.28 10.51 21.5367 10.8483C22.8084 12.5283 22.9484 15.3167 21.875 17.6033C21.1517 19.1083 19.6234 20.1583 17.57 20.5433L16.59 20.73L16.9517 21.3717L17.325 22.025L17.36 24.6267L17.4067 27.2283L17.6984 27.415C17.9667 27.59 18.025 27.59 18.585 27.3917C19.5184 27.0767 21.1167 26.2133 21.9917 25.5483C27.195 21.6517 28.875 14.6633 25.9934 8.85332C24.3017 5.43499 21.105 2.80999 17.4417 1.82999C15.8434 1.40999 12.8334 1.31665 11.3167 1.65499Z" fill="currentColor"/>
</svg>
