<svg width="1em" height="1em" viewBox="0 0 12 12" fill="none" xmlns="http://www.w3.org/2000/svg">
<g clip-path="url(#clip0_127_67)">
<path d="M8.13556 4.23825L6.81033 4.67098L5.6574 5.17983L5.33485 5.26499C5.25271 5.34312 5.16657 5.42226 5.07341 5.5024C4.97124 5.59054 4.87608 5.67068 4.80295 5.72877C4.72182 5.79288 4.60162 5.91308 4.54052 5.9892C4.44936 6.10339 4.37724 6.22459 4.34619 6.31775C4.29109 6.48604 4.31815 6.65632 4.42432 6.8136C4.56055 7.01393 4.83201 7.21826 5.14853 7.3575C5.30982 7.42863 5.58127 7.51978 5.7856 7.57085C6.12517 7.65701 6.78228 7.75016 7.14388 7.7642C7.21699 7.7672 7.31516 7.7672 7.31916 7.7642C7.32718 7.75917 7.38328 7.652 7.4484 7.51879C7.67077 7.06501 7.83104 6.6393 7.91818 6.27569C7.97026 6.05533 8.01133 5.76183 8.03836 5.41426C8.04539 5.31709 8.04838 4.99155 8.04237 4.88135C8.03335 4.70106 8.01732 4.55482 7.9923 4.41157C7.98829 4.39053 7.98728 4.3715 7.98929 4.3705C7.99329 4.3675 8.0053 4.36349 8.16858 4.3164L8.13554 4.23828V4.23826H8.13556V4.23825ZM7.83305 4.41556C7.84507 4.41556 7.87711 4.72307 7.88512 4.91741C7.88714 4.95847 7.88612 4.98552 7.88413 4.98552C7.87612 4.98552 7.71484 4.89037 7.59967 4.81825C7.49949 4.75514 7.30918 4.62892 7.27913 4.60488C7.26909 4.59788 7.27009 4.59688 7.35224 4.56882C7.49146 4.52174 7.82204 4.41556 7.83305 4.41556ZM7.15792 4.63794C7.16694 4.63794 7.18996 4.65095 7.24506 4.68501C7.4514 4.81423 7.73188 4.9705 7.85208 5.02259C7.88913 5.03862 7.89313 5.0326 7.808 5.09071C7.62569 5.21491 7.3983 5.33711 7.11983 5.46032C7.07076 5.48236 7.02969 5.49938 7.0287 5.49938C7.0267 5.49938 7.03269 5.47435 7.0407 5.4443C7.10781 5.19486 7.14588 4.94244 7.1479 4.7401C7.14889 4.63993 7.14889 4.63993 7.15792 4.63694C7.1559 4.63794 7.1569 4.63794 7.15792 4.63794ZM7.01869 4.69102C7.02468 4.69702 7.02068 4.92141 7.01266 4.98251C6.99463 5.12876 6.96659 5.26498 6.92052 5.41825C6.9095 5.45529 6.89947 5.48636 6.89749 5.48836C6.89346 5.49336 6.75623 5.35914 6.71116 5.30705C6.63302 5.2169 6.57193 5.12674 6.52686 5.0386C6.50381 4.99352 6.46776 4.90539 6.47076 4.90238C6.48678 4.89136 7.01468 4.68702 7.01869 4.69102ZM6.36357 4.94845C6.36457 4.94845 6.36557 4.94845 6.36659 4.94945C6.36858 4.95145 6.37561 4.96749 6.38162 4.98551C6.41366 5.07266 6.48577 5.20087 6.54789 5.28301C6.616 5.37317 6.70516 5.46932 6.77927 5.53243C6.80332 5.55246 6.82534 5.57149 6.82834 5.5745C6.83436 5.58051 6.83636 5.5795 6.67308 5.64162C6.48379 5.71373 6.27743 5.78585 6.04102 5.86198C5.98455 5.88018 5.92813 5.89855 5.87177 5.91707C5.86274 5.92008 5.86575 5.91507 5.89179 5.87401C6.00898 5.69069 6.18728 5.33109 6.28745 5.07666C6.30448 5.03259 6.32151 4.98852 6.32452 4.9785C6.32853 4.96447 6.33353 4.95947 6.34654 4.95245C6.35355 4.95046 6.36058 4.94845 6.36357 4.94845ZM6.16326 5.03159C6.16625 5.0336 6.11517 5.14077 6.06508 5.23894C5.96791 5.42825 5.86174 5.61458 5.7195 5.84095C5.69546 5.88001 5.67243 5.91608 5.66942 5.92009C5.66442 5.92711 5.6624 5.92509 5.64638 5.89405C5.61232 5.82693 5.58427 5.74078 5.56925 5.66164C5.55421 5.58351 5.55723 5.44729 5.57426 5.36315C5.58727 5.30105 5.58628 5.30205 5.61633 5.28702C5.74454 5.22192 6.15925 5.02759 6.16326 5.03159ZM7.89115 5.10172V5.14378C7.89115 5.36716 7.86711 5.67367 7.83204 5.89706C7.82603 5.93612 7.821 5.96816 7.82002 5.96918C7.82002 5.96918 7.79097 5.96117 7.75692 5.95114C7.60667 5.90406 7.44339 5.83494 7.29614 5.75382C7.19896 5.70073 7.05774 5.61357 7.06175 5.60956C7.06273 5.60857 7.10481 5.58653 7.15389 5.56048C7.35024 5.45832 7.53854 5.34813 7.70182 5.23895C7.76292 5.19787 7.85506 5.13177 7.87512 5.11374L7.89115 5.10172ZM5.40697 5.3982C5.41098 5.3982 5.40997 5.40621 5.40396 5.44227C5.39995 5.46832 5.39495 5.51641 5.39296 5.54945C5.38493 5.6957 5.40898 5.80389 5.4811 5.95213C5.50114 5.9932 5.51717 6.02726 5.51616 6.02825C5.50914 6.03427 4.84604 6.22861 4.63768 6.28569C4.57558 6.30271 4.5215 6.31775 4.51747 6.31873C4.51047 6.32075 4.50946 6.31975 4.51247 6.30271C4.5355 6.15547 4.6477 5.96314 4.80395 5.80087C4.90813 5.69269 4.99128 5.62959 5.13351 5.54844C5.23568 5.49035 5.39295 5.40322 5.40497 5.3992C5.40498 5.3982 5.40597 5.3982 5.40697 5.3982ZM6.9696 5.67767C6.9706 5.67667 6.99463 5.6897 7.02368 5.70672C7.23804 5.83094 7.53654 5.94613 7.79095 6.00522L7.81401 6.01024L7.78195 6.02825C7.64873 6.10238 7.21099 6.28468 6.76325 6.45197C6.69813 6.476 6.63403 6.50005 6.622 6.50506C6.60998 6.51006 6.59896 6.51307 6.59896 6.51207C6.59896 6.51106 6.617 6.476 6.64002 6.43294C6.76523 6.19854 6.89145 5.91307 6.95556 5.71473C6.96359 5.6957 6.96858 5.67868 6.9696 5.67767ZM6.81033 5.72976C6.81135 5.73078 6.80332 5.7518 6.7933 5.77584C6.70616 5.98719 6.59195 6.21759 6.44572 6.47602C6.40866 6.54214 6.3776 6.59523 6.37659 6.59523C6.3756 6.59523 6.34554 6.57719 6.30948 6.55516C6.09711 6.42493 5.90881 6.26467 5.78561 6.1094L5.76757 6.08737L5.85872 6.06232C6.18527 5.97318 6.46272 5.87702 6.7382 5.75883C6.77727 5.74279 6.80933 5.72976 6.81033 5.72976ZM7.79999 6.07534C7.80099 6.09838 7.7499 6.30473 7.70783 6.45397C7.67277 6.57918 7.64271 6.67735 7.58763 6.85063C7.56359 6.92678 7.54257 6.98987 7.54155 6.98987C7.54056 6.98987 7.53455 6.98887 7.52854 6.98688C7.23104 6.93277 6.96459 6.85765 6.71417 6.75749C6.64404 6.72943 6.54388 6.68435 6.53787 6.67935C6.53588 6.67733 6.59598 6.6493 6.6721 6.61624C7.12787 6.4169 7.60066 6.19052 7.76292 6.09337C7.78195 6.08135 7.79698 6.07534 7.79999 6.07534ZM5.51516 6.15348C5.51716 6.15548 5.38995 6.33879 5.21164 6.5882C5.14954 6.67535 5.07742 6.77752 5.05038 6.81558C5.02333 6.85365 4.98227 6.91375 4.95923 6.94981L4.91714 7.01492L4.87206 6.97686C4.81897 6.93278 4.72683 6.83863 4.68576 6.78654C4.59961 6.67937 4.54152 6.56618 4.51848 6.46301C4.50746 6.41492 4.50746 6.39087 4.51746 6.38788C4.53249 6.38388 4.79994 6.32077 5.05037 6.26266C5.18961 6.23062 5.35087 6.19255 5.40897 6.17853C5.46707 6.16448 5.51416 6.15348 5.51516 6.15348ZM5.64337 6.20256L5.67541 6.23862C5.81967 6.39989 5.96691 6.51911 6.14521 6.62326C6.17727 6.64131 6.20131 6.65732 6.19929 6.65834C6.1923 6.66334 5.58026 6.88069 5.29679 6.97886C5.13753 7.03495 5.0063 7.08002 5.00531 7.08002C5.00431 7.08002 4.99529 7.07402 4.98526 7.067L4.96724 7.05398L4.99628 7.01192C5.09044 6.87569 5.20865 6.72644 5.46608 6.41592L5.64337 6.20256ZM6.44272 6.77451C6.44371 6.77352 6.48778 6.78953 6.54187 6.80959C6.6721 6.85866 6.77526 6.88971 6.9135 6.92477C7.08379 6.96785 7.3302 7.00992 7.47545 7.02194C7.49749 7.02393 7.50951 7.02595 7.5055 7.02895C7.49847 7.03296 7.35124 7.08204 7.24306 7.1161C7.07076 7.17018 6.54488 7.32544 6.11617 7.44866C6.03703 7.47169 5.96892 7.49073 5.96491 7.49172C5.95491 7.49373 5.92184 7.4847 5.92184 7.4807C5.92184 7.47871 5.94587 7.44766 5.97493 7.4136C6.11916 7.2413 6.26241 7.04899 6.38162 6.86668C6.41466 6.81658 6.44272 6.77551 6.44272 6.77451ZM6.26641 6.77953C6.26741 6.78053 6.1963 6.89472 6.0721 7.09104C6.019 7.17418 5.9599 7.26834 5.93886 7.3014C5.91883 7.33345 5.88878 7.38354 5.87176 7.41158L5.8427 7.46268L5.82768 7.45867C5.79161 7.44865 5.53819 7.35949 5.47107 7.33245C5.38793 7.29939 5.30179 7.25933 5.23767 7.22527C5.15755 7.1822 5.05739 7.11808 5.0654 7.11609C5.0674 7.11509 5.20463 7.07802 5.3699 7.03295C5.80864 6.91374 6.05204 6.84463 6.21132 6.79455C6.24038 6.78553 6.26541 6.77852 6.26641 6.77953ZM7.51351 7.07201H7.5145C7.51851 7.08204 7.35625 7.53279 7.29713 7.67502C7.28412 7.70707 7.27913 7.7151 7.27211 7.71408C7.25507 7.7131 7.01969 7.68004 6.87643 7.659C6.62703 7.62094 6.20832 7.5478 6.10315 7.52377L6.07911 7.51877L6.22834 7.48469C6.54889 7.41257 6.70314 7.37351 6.8594 7.32543C7.05674 7.26533 7.25208 7.1902 7.4494 7.09805C7.48045 7.08403 7.50649 7.07301 7.51351 7.07201Z" fill="url(#paint0_linear_127_67)"/>
<path d="M6.76918 1.14907C6.74715 1.14608 6.39154 1.27429 6.16216 1.36744C5.85263 1.49366 5.61224 1.61387 5.46399 1.71803C5.40891 1.75711 5.33978 1.82621 5.32877 1.85325C5.32477 1.86327 5.32275 1.87529 5.32275 1.88731L5.45699 2.01453L5.77651 2.1167L6.53679 2.25293L7.40624 2.40218L7.41527 2.32706C7.41227 2.32706 7.41025 2.32606 7.40727 2.32606L7.29305 2.30802L7.27003 2.26696C7.15183 2.0586 7.02161 1.80017 6.94549 1.62587C6.88639 1.49064 6.83029 1.3344 6.79924 1.2222C6.7822 1.15409 6.78021 1.15008 6.76921 1.14909V1.14906H6.76918V1.14907ZM6.75314 1.20017H6.75417C6.75515 1.20116 6.75916 1.22922 6.76317 1.26226C6.78019 1.40252 6.81126 1.53772 6.86034 1.68397C6.89739 1.79416 6.89739 1.78816 6.85433 1.77513C6.75216 1.74709 6.29439 1.66795 5.96284 1.62188C5.90974 1.61486 5.86467 1.60785 5.86467 1.60686C5.86066 1.60285 6.10406 1.47563 6.21124 1.42556C6.34847 1.36244 6.7251 1.20517 6.75314 1.20017ZM5.78752 1.64892L5.8266 1.66193C6.03895 1.73406 6.57283 1.83623 6.86734 1.86027C6.90038 1.86328 6.92845 1.86629 6.92943 1.86629C6.93043 1.86729 6.9024 1.88231 6.86633 1.89934C6.72411 1.97046 6.56784 2.0576 6.45965 2.12472C6.42761 2.14474 6.39854 2.16078 6.39455 2.16078C6.39054 2.16078 6.36951 2.15677 6.34748 2.15377L6.30741 2.14775L6.20725 2.04958C6.03095 1.8783 5.89272 1.74608 5.83963 1.69599L5.78752 1.64892ZM5.74747 1.67996L5.8887 1.85627C5.96582 1.95343 6.04396 2.04858 6.061 2.06961C6.07801 2.09066 6.09205 2.10769 6.09105 2.10869C6.08704 2.11169 5.88672 2.07262 5.78052 2.04859C5.67134 2.02354 5.62627 2.01152 5.55916 1.9905L5.50406 1.97246V1.95843C5.50506 1.89131 5.59021 1.79115 5.73445 1.68899L5.74747 1.67996ZM6.94748 1.92037C6.95149 1.92037 6.95648 1.92938 6.9685 1.95643C7.00256 2.03155 7.10876 2.2339 7.13478 2.27296C7.14282 2.28599 7.15682 2.28699 7.01559 2.26395C6.67603 2.20884 6.56684 2.19083 6.56684 2.18883C6.56684 2.18783 6.57686 2.18082 6.58988 2.1738C6.69506 2.11571 6.80123 2.04158 6.8954 1.96245C6.91844 1.94341 6.93947 1.92538 6.94347 1.92237C6.94447 1.92037 6.94648 1.91937 6.94748 1.92037Z" fill="url(#paint1_linear_127_67)"/>
<path d="M5.33575 1.83923C5.33575 1.83923 5.31373 1.87431 5.33476 1.9264C5.34779 1.95844 5.38585 1.9975 5.42891 2.03757C5.42891 2.03757 5.87466 2.4723 5.92875 2.53441C6.17516 2.81888 6.28234 3.09935 6.29236 3.48601C6.29837 3.73442 6.25128 3.95279 6.13409 4.20622C5.92574 4.66098 5.486 5.16283 4.80786 5.71977L4.90704 5.68671C4.97115 5.63862 5.0583 5.58755 5.26263 5.47536C5.73442 5.21691 6.26531 4.97951 6.91641 4.7351C7.85396 4.3825 9.39557 3.9698 10.273 3.83559L10.3642 3.82156L10.3502 3.79952C10.27 3.67531 10.2149 3.59819 10.1488 3.51605C9.9565 3.27765 9.72312 3.08433 9.43763 2.92406C9.04497 2.7047 8.5371 2.53341 7.89404 2.4062C7.77284 2.38215 7.50639 2.33608 7.29003 2.30302C6.83125 2.23192 6.53475 2.18283 6.20821 2.12673C6.09103 2.10669 5.91572 2.07665 5.79952 2.05161C5.73942 2.03858 5.62424 2.01154 5.53409 1.98049C5.46197 1.95243 5.35779 1.92438 5.33575 1.83923ZM5.5942 2.08966C5.59519 2.08868 5.61121 2.09467 5.63226 2.10168C5.67032 2.11469 5.7194 2.12972 5.77751 2.14576C5.82148 2.15785 5.86555 2.16954 5.90973 2.18081C5.96983 2.19583 6.01991 2.20986 6.0209 2.20986C6.02793 2.21687 6.1291 2.54039 6.16316 2.66461C6.17616 2.7117 6.1862 2.75176 6.1852 2.75176C6.18417 2.75277 6.17316 2.73573 6.16015 2.7127C6.04295 2.50635 5.85764 2.297 5.64327 2.12871C5.61524 2.10869 5.5942 2.09066 5.5942 2.08966ZM6.08702 2.22589C6.09203 2.22589 6.11407 2.2289 6.1411 2.2349C6.31139 2.27296 6.61691 2.33106 6.81223 2.36412C6.84529 2.36913 6.87134 2.37515 6.87134 2.37714C6.87134 2.37915 6.85931 2.38615 6.84428 2.39418C6.81124 2.4112 6.678 2.49032 6.63394 2.52038C6.52275 2.5945 6.42259 2.67464 6.35046 2.74675C6.32142 2.77581 6.29636 2.79985 6.29636 2.79985C6.29636 2.79985 6.29037 2.78282 6.28534 2.76177C6.2493 2.62254 6.17416 2.41619 6.10605 2.27096C6.09503 2.24792 6.08601 2.22688 6.08601 2.22489C6.08601 2.22689 6.08601 2.22589 6.08702 2.22589ZM6.95447 2.39117C6.96048 2.39316 6.9705 2.42723 6.99053 2.50235C7.0276 2.6476 7.04463 2.80987 7.03862 2.96112C7.0366 3.00319 7.03461 3.04225 7.03259 3.04727L7.0296 3.05728L6.97751 3.04026C6.87033 3.0062 6.69605 2.9551 6.5468 2.91304C6.46164 2.89 6.39255 2.86897 6.39255 2.86697C6.39255 2.86095 6.51676 2.73674 6.56984 2.68967C6.67099 2.60051 6.94545 2.38816 6.95447 2.39117ZM7.02359 2.40117C7.0266 2.39818 7.43829 2.46929 7.6256 2.50535C7.76485 2.53239 7.96718 2.57447 7.97919 2.57949C7.9852 2.58148 7.96416 2.5935 7.89705 2.62355C7.63261 2.74276 7.43627 2.84992 7.24096 2.98015C7.18988 3.01421 7.1468 3.04225 7.1458 3.04225C7.1448 3.04225 7.1438 3.01321 7.1438 2.97815C7.1438 2.78784 7.10573 2.59551 7.0356 2.43324C7.02859 2.41721 7.02259 2.40219 7.02359 2.40117ZM8.08837 2.61154C8.09138 2.61454 8.07835 2.69568 8.06633 2.74376C8.03028 2.89301 7.93312 3.11439 7.81393 3.32273C7.79288 3.3598 7.77385 3.38985 7.77183 3.39084C7.76985 3.39184 7.7428 3.37681 7.71174 3.35878C7.59555 3.29067 7.46333 3.22657 7.31908 3.16646C7.27903 3.14944 7.24396 3.1354 7.24296 3.13342C7.23593 3.1274 7.55848 2.91404 7.72877 2.81187C7.864 2.72974 8.08436 2.60752 8.08837 2.61154ZM8.16449 2.62355C8.17351 2.62355 8.35582 2.67364 8.45097 2.70169C8.68637 2.77181 8.95682 2.87097 9.13312 2.9511L9.20623 2.98417L9.15516 2.99618C8.72445 3.09534 8.35582 3.20955 8.00022 3.35379C7.97117 3.3658 7.94512 3.37582 7.94314 3.37582C7.94113 3.37582 7.95115 3.35279 7.96417 3.32473C8.07135 3.09735 8.14046 2.85995 8.15748 2.6576C8.1585 2.63857 8.16148 2.62355 8.16449 2.62355ZM6.34946 3.04026C6.35246 3.03725 6.4917 3.07031 6.56683 3.09133C6.68101 3.12339 6.92341 3.20452 6.92341 3.21054C6.92341 3.21153 6.89638 3.23458 6.86433 3.26263C6.73311 3.37181 6.60689 3.48699 6.45563 3.63324C6.41055 3.67633 6.3725 3.71138 6.3705 3.71138C6.36849 3.71138 6.36751 3.70536 6.36849 3.69735C6.39152 3.52906 6.38653 3.31271 6.35447 3.09334C6.35146 3.06528 6.34846 3.04126 6.34946 3.04026ZM9.27537 3.04327C9.27735 3.04526 9.21125 3.14944 9.16919 3.20853C9.1091 3.29467 9.02092 3.40888 8.82159 3.6593C8.71643 3.79151 8.59822 3.94077 8.55917 3.99085C8.51908 4.04093 8.48604 4.08299 8.48502 4.08299C8.48403 4.08299 8.47102 4.06497 8.45699 4.04294C8.3448 3.87465 8.21057 3.7274 8.0513 3.59519C8.02125 3.57014 7.98821 3.54309 7.97719 3.53508C7.96617 3.52707 7.95715 3.51905 7.95715 3.51806C7.95715 3.51506 8.12742 3.44192 8.25665 3.38984C8.48304 3.29768 8.79152 3.1875 9.02293 3.11638C9.14414 3.07832 9.27336 3.04126 9.27537 3.04327ZM9.35249 3.06329C9.35649 3.0623 9.38054 3.07431 9.40959 3.09133C9.653 3.23056 9.89139 3.40987 10.0797 3.59418C10.1328 3.64628 10.264 3.78251 10.262 3.7835C10.262 3.7835 10.2159 3.78751 10.1619 3.79151C9.74014 3.82357 9.20025 3.91271 8.68137 4.03792C8.64632 4.04592 8.61527 4.05294 8.61326 4.05294C8.61127 4.05294 8.65032 4.01388 8.69942 3.9668C9.00392 3.67331 9.14316 3.488 9.30742 3.15744C9.33045 3.10837 9.3505 3.0663 9.35249 3.06329C9.35149 3.06329 9.35149 3.06329 9.35249 3.06329ZM7.12175 3.29169C7.13578 3.29467 7.266 3.3558 7.36416 3.40487C7.45431 3.44993 7.58955 3.52207 7.59655 3.52807C7.59755 3.52906 7.54946 3.55411 7.49039 3.58316C7.30206 3.67732 7.14079 3.76646 6.9725 3.86863C6.92442 3.89769 6.88436 3.92174 6.88336 3.92174C6.87935 3.92174 6.88035 3.91771 6.9074 3.86863C6.99755 3.70437 7.06966 3.50804 7.11075 3.31671C7.11474 3.30169 7.11875 3.29169 7.12175 3.29169ZM6.99153 3.31571C6.99454 3.31873 6.96048 3.44192 6.93946 3.50904C6.89837 3.63625 6.82926 3.79552 6.76216 3.91572C6.74611 3.94375 6.72208 3.98483 6.70906 4.00786L6.68402 4.04793L6.62793 3.99385C6.56283 3.93074 6.50972 3.89168 6.44162 3.85661C6.41456 3.8426 6.39353 3.83057 6.39353 3.82858C6.39353 3.82056 6.56482 3.6653 6.69604 3.55311C6.79019 3.47198 6.98853 3.31271 6.99153 3.31571ZM7.78788 3.64327L7.83697 3.67531C7.94913 3.74845 8.08135 3.8456 8.18254 3.93074C8.23962 3.97781 8.3498 4.07699 8.37186 4.10103L8.38386 4.11407L8.30274 4.1371C7.84396 4.2643 7.48937 4.37749 7.07567 4.52976C7.0296 4.54678 6.99053 4.5608 6.98752 4.5608C6.98153 4.5608 6.9765 4.5658 7.07969 4.47064C7.34414 4.22725 7.57852 3.95879 7.75281 3.69735L7.78788 3.64327ZM7.57853 3.69536C7.58052 3.69735 7.4433 3.89067 7.36115 3.99986C7.26299 4.13008 7.08869 4.34844 6.96849 4.49067C6.91842 4.54978 6.87536 4.59886 6.87334 4.59986C6.87033 4.60086 6.86933 4.58584 6.86933 4.5628C6.86933 4.44159 6.83829 4.31237 6.78419 4.20219C6.76115 4.15612 6.75714 4.1451 6.76216 4.1401C6.78119 4.12306 7.07268 3.95678 7.25698 3.85762C7.38119 3.79151 7.5755 3.69335 7.57853 3.69536ZM6.31239 4.00588C6.3154 4.00588 6.33844 4.01789 6.36449 4.03192C6.42859 4.06697 6.48569 4.10604 6.53677 4.14812C6.53877 4.15011 6.51274 4.17116 6.47868 4.19619C6.38352 4.2643 6.23928 4.37349 6.15515 4.44061C6.06698 4.51072 6.064 4.51272 6.074 4.4977C6.14012 4.39653 6.17316 4.33943 6.20823 4.26632C6.23928 4.20122 6.27032 4.12408 6.29236 4.05696C6.30037 4.02792 6.31039 4.00588 6.31239 4.00588ZM6.64997 4.27031C6.65496 4.26932 6.66099 4.27833 6.68802 4.3184C6.74512 4.40353 6.78919 4.51774 6.80023 4.60989L6.80221 4.62993L6.665 4.68302C6.41957 4.77817 6.19321 4.87234 6.03993 4.94244C5.99687 4.96248 5.92174 4.99854 5.87267 5.02259C5.82358 5.04762 5.78351 5.06666 5.78351 5.06566C5.78351 5.06466 5.81456 5.04162 5.85262 5.01356C6.15214 4.79621 6.41157 4.5578 6.60589 4.31941C6.62693 4.29436 6.64597 4.27132 6.64796 4.27032L6.64997 4.27031ZM6.49471 4.30838C6.49872 4.31239 6.38453 4.4416 6.3064 4.52073C6.11307 4.71807 5.92175 4.87234 5.68435 5.02259C5.6543 5.04162 5.62726 5.05864 5.62425 5.06066C5.61723 5.06466 5.62624 5.05464 5.73042 4.94144C5.79654 4.87032 5.84662 4.81022 5.90371 4.73611C5.94177 4.68704 5.94879 4.68002 6.00389 4.64094C6.15114 4.53476 6.4907 4.30437 6.49471 4.30838Z" fill="url(#paint2_radial_127_67)"/>
<path d="M2.15733 8.45603C2.13885 8.45603 2.12036 8.45779 2.10205 8.45779C1.72883 8.47768 1.4771 8.64193 1.32993 8.96269C1.20405 9.25278 1.21779 9.63198 1.33134 9.92386C1.46338 10.209 1.67673 10.3596 2.03286 10.4164C2.10821 10.4288 2.15874 10.4701 2.30468 10.6405L2.48425 10.8509H2.80992L2.59337 10.6326C2.47366 10.5129 2.37684 10.4087 2.37684 10.3995C2.37684 10.3904 2.42263 10.3703 2.47806 10.3534C2.6608 10.2981 2.81254 10.1569 2.91869 9.94056C3.00461 9.76682 3.01694 9.71312 3.02925 9.49695C3.06147 8.85352 2.72223 8.45125 2.15731 8.45584L2.15733 8.45603ZM2.44286 10.1386C2.28442 10.2154 2.05436 10.2307 1.90418 10.1756C1.74891 10.1186 1.59857 9.95732 1.53096 9.77476C1.4558 9.57513 1.46653 9.20686 1.55244 9.04101C1.69063 8.77695 1.87338 8.65549 2.14042 8.65549C2.53652 8.65549 2.76185 8.89809 2.79125 9.35402C2.81449 9.73464 2.68703 10.0202 2.44303 10.1385L2.44286 10.1386ZM8.06882 9.00563C7.93221 9.00563 7.82764 9.06092 7.75721 9.16987L7.70194 9.25614V9.03185H7.46552V10.3768H7.70178V9.94693C7.70178 9.55382 7.70669 9.50788 7.76162 9.4003C7.83733 9.25279 7.96758 9.17922 8.09347 9.21443L8.17797 9.23907V9.00599H8.06882V9.00563ZM6.67985 8.9933C6.63354 8.9933 6.58442 8.99947 6.5355 9.01022C6.21914 9.09294 6.04081 9.39573 6.05172 9.70733C6.05172 9.96824 6.10241 10.0987 6.2283 10.2355C6.48621 10.4471 6.71946 10.464 7.03422 10.3504C7.08792 10.3275 7.14636 10.3011 7.14636 10.3011V10.0895L7.03422 10.1476C6.77948 10.2585 6.5876 10.2585 6.4339 10.1279C6.33587 10.0281 6.29272 9.90838 6.27284 9.77178H7.2261V9.59044C7.2261 9.22075 7.00359 8.98732 6.67966 8.9933H6.67985ZM6.29431 9.58305C6.29431 9.58305 6.32953 9.35244 6.46015 9.26195C6.52301 9.21758 6.59517 9.19611 6.66576 9.19611C6.73654 9.19611 6.80712 9.21899 6.86539 9.26354C6.98512 9.35561 7.00518 9.5813 7.00518 9.5813H6.29432V9.58305H6.29431ZM0.594591 9.34048C0.338283 9.18519 0.224558 9.07322 0.238464 8.94119C0.278242 8.57591 0.729626 8.62643 0.979594 8.76463L0.981372 8.51889C0.981372 8.51889 0.843172 8.45903 0.645118 8.45586C0.34127 8.45128 0.144807 8.55091 0.052749 8.75372C-0.082464 9.05299 0.0372599 9.27866 0.469981 9.53042C0.712911 9.67177 0.820287 9.79448 0.820287 9.92827C0.820287 10.2047 0.487045 10.3011 0.14324 10.1277C0.0724838 10.0925 0.0126219 10.0631 0.00945586 10.0631C-0.00287535 10.1415 0.00348103 10.3289 0.00348103 10.3289C0.00348103 10.3289 0.109112 10.3733 0.267534 10.4039C0.660444 10.4823 1.018 10.2979 1.0518 9.99867C1.0812 9.71772 0.979603 9.57036 0.594608 9.34027L0.594591 9.34048ZM10.1613 8.99014C10.1151 8.99014 10.0662 8.99648 10.0151 9.00722C9.69914 9.08995 9.52115 9.39276 9.53329 9.70436C9.53329 9.9649 9.58383 10.0941 9.70969 10.2307C9.96761 10.4425 10.2009 10.4596 10.5172 10.3459C10.5707 10.323 10.629 10.2969 10.629 10.2969V10.085L10.517 10.1434C10.2618 10.254 10.0699 10.254 9.91674 10.1233C9.81815 10.0237 9.77537 9.9054 9.75548 9.7672H10.7072V9.58588C10.7072 9.21797 10.4846 8.98435 10.1607 8.99052L10.1613 8.99014ZM9.77571 9.57988C9.77571 9.57988 9.81128 9.34962 9.94172 9.25736C10.0044 9.21284 10.0766 9.19135 10.1472 9.19135C10.2176 9.19135 10.2885 9.21423 10.3468 9.25895C10.4665 9.35102 10.4866 9.57829 10.4866 9.57829H9.77591L9.77571 9.57988ZM5.44226 9.34346C5.18596 9.18855 5.07257 9.07622 5.08631 8.94418C5.12609 8.57871 5.57748 8.62942 5.82745 8.76762L5.82922 8.52187C5.82922 8.52187 5.69102 8.46201 5.49296 8.45919C5.18911 8.45462 4.99265 8.55426 4.90042 8.75705C4.7654 9.05631 4.88669 9.28201 5.31799 9.53376C5.56058 9.67495 5.66796 9.79606 5.66796 9.92985C5.66796 10.2062 5.33489 10.3043 4.99108 10.1293C4.92066 10.0941 4.86082 10.065 4.85729 10.065C4.84496 10.1434 4.85132 10.3309 4.85132 10.3309C4.85132 10.3309 4.9557 10.3736 5.11361 10.4059C5.50688 10.4844 5.8646 10.3002 5.89824 10.001C5.92746 9.7214 5.82606 9.57405 5.44227 9.34379V9.34346H5.44226ZM11.5504 9.00247C11.4138 9.00247 11.308 9.05791 11.2388 9.16689L11.1835 9.25279V9.02887H10.9471V10.3735H11.1833V9.9436C11.1833 9.55067 11.1881 9.50454 11.2432 9.39716C11.3189 9.24981 11.4492 9.17606 11.575 9.21143L11.6595 9.23607V9.00248L11.5504 9.00247ZM3.56214 9.33571V8.47908H3.32379V10.3765H4.32618V10.1524H3.56215V9.33571H3.56214ZM9.07437 9.60276L8.87791 10.114L8.689 9.59994L8.49712 9.03028H8.25313C8.41123 9.47849 8.58319 9.93443 8.75661 10.3765C8.83178 10.3782 8.90712 10.3765 8.98228 10.3765L9.24759 9.71033L9.51781 9.03045H9.28457C9.28457 9.03045 9.18157 9.3005 9.0742 9.60294L9.07437 9.60276ZM4.11139 7.96204C4.14977 7.96204 4.1818 7.94974 4.20821 7.92333C4.23425 7.89726 4.24799 7.86663 4.24799 7.82826C4.24799 7.78988 4.23425 7.75784 4.20821 7.73319C4.1818 7.70855 4.15134 7.69621 4.11314 7.69621C4.07443 7.69621 4.04238 7.70855 4.01632 7.73459C3.98992 7.76066 3.97794 7.7927 3.97794 7.82967C3.97794 7.8684 3.99028 7.90043 4.01632 7.92474C4.04097 7.94937 4.07301 7.9617 4.11139 7.9617V7.96204ZM4.0269 7.74376C4.04977 7.72088 4.07759 7.7103 4.11315 7.7103C4.1466 7.7103 4.17442 7.72088 4.19767 7.74376C4.22055 7.76664 4.23287 7.79446 4.23287 7.82826C4.23287 7.86205 4.22055 7.89129 4.19767 7.91416C4.17443 7.93703 4.1466 7.94796 4.11315 7.94796C4.07918 7.94796 4.05153 7.9374 4.02866 7.91416C4.00577 7.89129 3.99345 7.86205 3.99345 7.82826C3.99345 7.79446 4.00401 7.76665 4.0269 7.74376ZM4.08375 7.84059H4.09924C4.11016 7.84059 4.12089 7.85114 4.13004 7.87122L4.14854 7.91275H4.17758L4.15471 7.86662C4.14538 7.84815 4.13623 7.83741 4.12548 7.8344C4.13904 7.83123 4.14977 7.82666 4.15752 7.81749C4.16525 7.80959 4.16808 7.79884 4.16808 7.78669C4.16808 7.77261 4.16368 7.76206 4.15436 7.7543C4.14379 7.7455 4.12689 7.74076 4.10505 7.74076H4.05613V7.91275H4.08077V7.84057L4.08375 7.84059ZM4.08375 7.76066H4.10523C4.12072 7.76066 4.13164 7.76383 4.13763 7.7684C4.14344 7.77298 4.14502 7.77897 4.14502 7.78988C4.14502 7.80977 4.13268 7.81911 4.10981 7.81911H4.08341V7.76066H4.08375ZM0.146382 7.82526C0.146382 7.76541 0.144628 7.72088 0.143216 7.69465H0.144628C0.150782 7.72561 0.158356 7.74869 0.164517 7.764L0.393363 8.27523H0.431745L0.660591 7.75943C0.666768 7.74536 0.67293 7.72422 0.680496 7.69482H0.682249C0.677679 7.74588 0.676096 7.79023 0.676096 7.82561V8.27682H0.754418V7.60609H0.656191L0.44583 8.0726C0.438077 8.09108 0.427337 8.11874 0.413609 8.15535H0.410427C0.405857 8.13721 0.395117 8.10957 0.379806 8.07577L0.174178 7.60449H0.0697968V8.27521H0.14514V7.8256L0.146382 7.82526ZM0.926073 7.82651H0.993687V8.24425H0.926073V7.82651ZM0.959876 7.67334C0.973969 7.67334 0.985935 7.66858 0.995084 7.65927C1.00442 7.6501 1.01059 7.63814 1.01059 7.62406C1.01059 7.61032 1.006 7.59799 0.99527 7.58885C0.985764 7.57952 0.973612 7.57475 0.959705 7.57475C0.945986 7.57475 0.933663 7.57952 0.92449 7.58885C0.915187 7.59799 0.909009 7.61032 0.909009 7.62406C0.909009 7.63938 0.913766 7.6501 0.92449 7.65927C0.935076 7.66858 0.945978 7.67334 0.959705 7.67334H0.959876ZM1.47569 8.25341V8.17982C1.43871 8.20746 1.39893 8.2212 1.35774 8.2212C1.30846 8.2212 1.26848 8.20431 1.23926 8.17193C1.21022 8.13988 1.19473 8.09532 1.19473 8.03988C1.19473 7.98179 1.21022 7.93564 1.24225 7.90044C1.27306 7.86664 1.31303 7.84974 1.36198 7.84974C1.40193 7.84974 1.44029 7.86208 1.4757 7.88673V7.80839C1.44349 7.79149 1.4067 7.78374 1.36514 7.78374C1.28838 7.78374 1.22854 7.80839 1.18383 7.85594C1.13945 7.90346 1.11657 7.96807 1.11657 8.04606C1.11657 8.11542 1.13646 8.17369 1.17784 8.21824C1.22097 8.264 1.27609 8.28724 1.34368 8.28724C1.39594 8.2858 1.43871 8.27488 1.47569 8.25341ZM1.66915 8.03071C1.66915 7.97561 1.68147 7.93108 1.70436 7.90043C1.72585 7.8728 1.75189 7.8589 1.7827 7.8589C1.80876 7.8589 1.82723 7.86365 1.84078 7.87439V7.79446C1.83023 7.78989 1.81491 7.7883 1.79502 7.7883C1.76738 7.7883 1.74275 7.79761 1.72109 7.81471C1.69821 7.83282 1.6799 7.86048 1.66916 7.89569H1.66741V7.79762H1.59083V8.27646H1.66758V8.03071H1.66915ZM2.10979 8.28597C2.18197 8.28597 2.24006 8.26272 2.28319 8.21661C2.32613 8.17082 2.34761 8.10922 2.34761 8.03245C2.34761 7.95414 2.32791 7.89427 2.28777 7.84971C2.24799 7.8052 2.1927 7.7837 2.12051 7.7837C2.04833 7.7837 1.99023 7.80519 1.94711 7.84673C1.90099 7.89252 1.8767 7.95712 1.8767 8.04004C1.8767 8.11222 1.89641 8.17208 1.93797 8.21661C1.98091 8.26272 2.03778 8.28579 2.10979 8.28579V8.28597ZM2.00064 7.89586C2.02987 7.86505 2.06826 7.84972 2.11577 7.84972C2.16508 7.84972 2.20204 7.86505 2.2295 7.89586C2.25714 7.92808 2.27088 7.97403 2.27088 8.03546C2.27088 8.0939 2.25855 8.13985 2.23249 8.17066C2.20645 8.20288 2.16807 8.21994 2.11735 8.21994C2.06807 8.21994 2.02987 8.20286 2.00064 8.17066C1.9716 8.13827 1.95769 8.0939 1.95769 8.03546C1.9547 7.97737 1.97002 7.92985 2.00064 7.89586ZM2.6837 8.24425C2.71291 8.21821 2.72842 8.18616 2.72842 8.146C2.72842 8.1108 2.71608 8.08158 2.6932 8.05852C2.67453 8.04005 2.64568 8.02331 2.60395 8.00641C2.56697 7.99093 2.54409 7.97718 2.53176 7.96644C2.51944 7.95413 2.51187 7.93883 2.51187 7.91716C2.51187 7.89727 2.51962 7.88195 2.53477 7.86963C2.55026 7.85732 2.56998 7.85134 2.59639 7.85134C2.63776 7.85134 2.67313 7.86224 2.70552 7.88531V7.80855C2.67454 7.79308 2.64091 7.78568 2.60253 7.78568C2.55325 7.78568 2.5117 7.79925 2.48105 7.82545C2.44883 7.85152 2.43353 7.88532 2.43353 7.92509C2.43353 7.9603 2.44409 7.98953 2.46415 8.01099C2.48105 8.02931 2.50994 8.04798 2.55006 8.06469C2.58845 8.0816 2.6145 8.0969 2.6284 8.10921C2.64212 8.12155 2.64829 8.13686 2.64829 8.15501C2.64829 8.1997 2.61766 8.22278 2.5578 8.22278C2.51168 8.22278 2.47032 8.20764 2.43333 8.17702V8.25973C2.46678 8.27982 2.50693 8.28896 2.55128 8.28896C2.60815 8.28597 2.65268 8.27207 2.68331 8.24443L2.6837 8.24425ZM3.04916 7.78372C2.97697 7.78372 2.91888 7.8052 2.87575 7.84674C2.82998 7.89254 2.80534 7.95714 2.80534 8.04006C2.80534 8.11223 2.82524 8.1721 2.8666 8.21663C2.90973 8.26274 2.96641 8.2858 3.0386 8.2858C3.11253 8.2858 3.16887 8.26258 3.212 8.21644C3.25513 8.17068 3.2766 8.10906 3.2766 8.0323C3.2766 7.95396 3.25653 7.89411 3.21674 7.84957C3.17521 7.80503 3.11992 7.78354 3.0495 7.78354L3.04916 7.78372ZM3.19808 8.03547C3.19808 8.0939 3.18576 8.13986 3.15971 8.17067C3.13365 8.20289 3.09527 8.21995 3.04456 8.21995C2.99526 8.21995 2.95707 8.20287 2.92784 8.17067C2.8988 8.13828 2.88489 8.0939 2.88489 8.03547C2.88489 7.97385 2.90022 7.92633 2.93103 7.89427C2.96006 7.86365 2.99845 7.84815 3.04616 7.84815C3.09368 7.84815 3.13189 7.86363 3.15951 7.89427C3.18417 7.92807 3.1979 7.97403 3.1979 8.03547H3.19808ZM3.40547 8.27506H3.48205V7.86049H3.59418V7.79605H3.48204V7.72211C3.48204 7.65488 3.50808 7.62107 3.56196 7.62107C3.5801 7.62107 3.59858 7.62564 3.61232 7.6334V7.56422C3.59858 7.55806 3.5801 7.55666 3.55702 7.55666C3.51566 7.55666 3.48186 7.56899 3.45421 7.59503C3.42199 7.62566 3.40493 7.66544 3.40493 7.71933V7.79785H3.32393V7.86227H3.40493V8.27528L3.40547 8.27506ZM3.72004 8.14443C3.72004 8.23809 3.76143 8.2858 3.84592 8.2858C3.87656 8.2858 3.89961 8.28088 3.9181 8.26996V8.20412C3.90402 8.21469 3.88729 8.21963 3.86881 8.21963C3.84277 8.21963 3.82446 8.21344 3.81371 8.19953C3.80279 8.18582 3.79664 8.16257 3.79664 8.13052V7.86031H3.91809V7.79587H3.79664V7.6547C3.77023 7.66385 3.74436 7.6716 3.71987 7.67933V7.79586H3.63714V7.8603H3.71987V8.14426L3.72004 8.14443ZM11.9588 9.0271C11.9328 9.00247 11.902 8.99014 11.8638 8.99014C11.825 8.99014 11.793 9.00247 11.7669 9.02887C11.7409 9.05475 11.7285 9.08695 11.7285 9.12394C11.7285 9.16232 11.7409 9.19436 11.7667 9.21899C11.7928 9.24364 11.8248 9.25598 11.8636 9.25598C11.9018 9.25598 11.934 9.24364 11.9604 9.21759C11.9863 9.19118 12 9.16073 12 9.12253C11.9986 9.0838 11.9847 9.05175 11.9586 9.02711L11.9588 9.0271ZM11.9465 9.20844C11.9236 9.23131 11.8958 9.24187 11.862 9.24187C11.8286 9.24187 11.8007 9.23131 11.7775 9.20844C11.7546 9.18519 11.7423 9.15615 11.7423 9.12217C11.7423 9.08871 11.7528 9.06092 11.7761 9.03767C11.799 9.01481 11.8266 9.00422 11.862 9.00422C11.8954 9.00422 11.9233 9.01481 11.9465 9.03767C11.9694 9.06092 11.9817 9.08871 11.9817 9.12217C11.9817 9.15774 11.9711 9.18519 11.9465 9.20844ZM11.8775 9.13009C11.8912 9.12692 11.9021 9.12076 11.9097 9.1132C11.9175 9.10527 11.9203 9.09452 11.9203 9.08223C11.9203 9.06849 11.9159 9.05757 11.9066 9.05001C11.896 9.0412 11.8789 9.03644 11.8573 9.03644H11.8083V9.20825H11.833V9.13607H11.8483C11.8589 9.13607 11.8694 9.14663 11.8789 9.1667L11.8972 9.20807H11.9265L11.9036 9.16194C11.8956 9.14187 11.8865 9.1327 11.8772 9.12971L11.8775 9.13009ZM11.8606 9.11461H11.8342V9.05652H11.8558C11.8712 9.05652 11.8819 9.05933 11.8881 9.06409C11.8942 9.06866 11.8956 9.07465 11.8956 9.08557C11.8956 9.10546 11.8833 9.11462 11.8604 9.11462L11.8606 9.11461ZM7.57767 7.77616H7.59915V7.60416H7.65599V7.58268H7.52081V7.60416H7.57768V7.77616H7.57767ZM7.70794 7.64694C7.70794 7.6302 7.70794 7.61648 7.7067 7.60875C7.70811 7.61789 7.71128 7.62407 7.71269 7.62864L7.77872 7.77616H7.78928L7.85545 7.62722C7.85723 7.62265 7.85865 7.61666 7.86162 7.60875C7.86021 7.62407 7.86021 7.63636 7.86021 7.64571V7.77599H7.8831V7.58268H7.85545L7.79562 7.71613C7.79421 7.72089 7.78943 7.7302 7.78645 7.74078H7.78469C7.78346 7.7346 7.7803 7.72845 7.77589 7.7179L7.71604 7.5827H7.68506V7.77634H7.7067V7.64713L7.70794 7.64694Z" fill="currentColor"/>
</g>
<defs>
<linearGradient id="paint0_linear_127_67" x1="5.31538" y1="7.11185" x2="5.79458" y2="6.8287" gradientUnits="userSpaceOnUse">
<stop stop-color="#909CA9"/>
<stop offset="1" stop-color="#EDEDEE"/>
</linearGradient>
<linearGradient id="paint1_linear_127_67" x1="5.32627" y1="1.77367" x2="5.71185" y2="1.77367" gradientUnits="userSpaceOnUse">
<stop stop-color="#939FAB"/>
<stop offset="1" stop-color="#DCDEE1"/>
</linearGradient>
<radialGradient id="paint2_radial_127_67" cx="0" cy="0" r="1" gradientUnits="userSpaceOnUse" gradientTransform="translate(7.27188 3.54205) rotate(-171.457) scale(0.497116 0.994479)">
<stop stop-color="#EE352C"/>
<stop offset="1" stop-color="#A91D22"/>
</radialGradient>
<clipPath id="clip0_127_67">
<rect width="12" height="12" fill="white"/>
</clipPath>
</defs>
</svg>
