<svg width="1em" height="1em" viewBox="0 0 30 31" fill="none" xmlns="http://www.w3.org/2000/svg">
<g clip-path="url(#clip0_2_23)">
<path d="M15 30.5C23.2843 30.5 30 23.7843 30 15.5C30 7.21573 23.2843 0.5 15 0.5C6.71573 0.5 0 7.21573 0 15.5C0 23.7843 6.71573 30.5 15 30.5Z" fill="#5C2D91"/>
<path opacity="0.1" d="M4.60318 4.71875C3.07831 6.07757 1.84702 7.73349 0.984761 9.585C0.122504 11.4365 -0.352549 13.4446 -0.411278 15.4862C-0.470007 17.5278 -0.111175 19.5599 0.643223 21.4579C1.39762 23.3559 2.53169 25.0799 3.97592 26.5241C5.42015 27.9684 7.1441 29.1024 9.04212 29.8568C10.9401 30.6112 12.9722 30.9701 15.0138 30.9113C17.0554 30.8526 19.0635 30.3775 20.9151 29.5153C22.7666 28.653 24.4225 27.4217 25.7813 25.8969L4.60318 4.71875Z" fill="white"/>
<path d="M3.46886 17.9609C3.38136 17.9623 3.29452 17.9455 3.21384 17.9116C3.13316 17.8777 3.06038 17.8275 3.00011 17.764C2.93818 17.7029 2.88924 17.6298 2.85621 17.5493C2.82319 17.4687 2.80676 17.3823 2.80792 17.2953C2.80729 17.2083 2.82396 17.1221 2.85695 17.0416C2.88995 16.9612 2.93861 16.888 3.00011 16.8265C3.05979 16.762 3.13235 16.7107 3.21309 16.676C3.29384 16.6413 3.38097 16.6239 3.46886 16.625C3.55662 16.6248 3.64349 16.6425 3.72411 16.6772C3.80473 16.7119 3.87739 16.7627 3.93761 16.8265C4.00016 16.8875 4.04983 16.9604 4.08365 17.0409C4.11747 17.1215 4.13476 17.208 4.13448 17.2953C4.1353 17.3827 4.11826 17.4694 4.08441 17.55C4.05055 17.6306 4.0006 17.7034 3.93761 17.764C3.87682 17.8268 3.80395 17.8766 3.72338 17.9105C3.64282 17.9443 3.55624 17.9615 3.46886 17.9609Z" fill="white"/>
<path d="M12.7829 17.8437H11.5547L7.16255 11.0281C7.05314 10.8602 6.962 10.681 6.89067 10.4937H6.85317C6.89491 10.8829 6.91057 11.2744 6.90005 11.6656V17.8437H5.90161V9.29843H7.20005L11.475 15.9922C11.6532 16.2703 11.7688 16.4609 11.8219 16.5641H11.8454C11.7959 16.1472 11.7755 15.7275 11.7844 15.3078V9.29843H12.7829V17.8437Z" fill="white"/>
<path d="M19.5422 17.8437H15V9.29843H19.3313V10.2031H16.0219V13.0437H19.1062V13.9437H16.0219V16.9062H19.5469L19.5422 17.8437Z" fill="white"/>
<path d="M26.2501 10.2031H23.7657V17.8437H22.7673V10.2031H20.311V9.29843H26.2501V10.2031Z" fill="white"/>
<path d="M12.2437 23.6562C11.9053 23.8201 11.532 23.899 11.1562 23.8859C10.9065 23.8972 10.6572 23.8549 10.4252 23.7619C10.1932 23.669 9.98371 23.5274 9.81086 23.3469C9.46644 22.9613 9.28496 22.4572 9.30461 21.9406C9.292 21.6609 9.33571 21.3815 9.43314 21.119C9.53057 20.8565 9.67974 20.6162 9.8718 20.4125C10.059 20.2208 10.284 20.0701 10.5325 19.97C10.7811 19.8699 11.0477 19.8227 11.3155 19.8312C11.636 19.8203 11.9553 19.8762 12.253 19.9953V20.4641C11.9664 20.3054 11.6432 20.2246 11.3155 20.2297C11.109 20.2239 10.9037 20.2627 10.7135 20.3436C10.5234 20.4245 10.353 20.5456 10.214 20.6984C9.92165 21.0315 9.77035 21.4652 9.79211 21.9078C9.77022 22.3271 9.91131 22.7386 10.1859 23.0562C10.3176 23.1979 10.4783 23.3093 10.6571 23.3829C10.8359 23.4566 11.0286 23.4906 11.2218 23.4828C11.5817 23.4922 11.9371 23.4013 12.2484 23.2203L12.2437 23.6562Z" fill="#F2F2F2"/>
<path d="M14.1609 23.8859C13.9743 23.892 13.7886 23.8579 13.6163 23.7859C13.444 23.7139 13.2893 23.6057 13.1624 23.4687C12.9061 23.1827 12.773 22.807 12.7921 22.4234C12.7804 22.2225 12.8088 22.0212 12.8756 21.8312C12.9424 21.6413 13.0462 21.4666 13.1812 21.3172C13.3189 21.1828 13.4827 21.0781 13.6625 21.0095C13.8423 20.941 14.0343 20.9101 14.2265 20.9187C14.4082 20.9091 14.5898 20.9388 14.7589 21.006C14.9281 21.0731 15.0806 21.1761 15.2062 21.3078C15.4553 21.6081 15.581 21.9918 15.5577 22.3812C15.5774 22.7765 15.4411 23.1637 15.1781 23.4594C15.0488 23.599 14.8912 23.7094 14.7157 23.783C14.5403 23.8565 14.3511 23.8917 14.1609 23.8859ZM14.1937 21.3219C14.0647 21.3164 13.9362 21.3402 13.8177 21.3913C13.6992 21.4424 13.5938 21.5196 13.5093 21.6172C13.3289 21.8494 13.239 22.1393 13.2562 22.4328C13.2398 22.7176 13.33 22.9984 13.5093 23.2203C13.5947 23.3165 13.7004 23.3924 13.8188 23.4427C13.9371 23.493 14.0652 23.5163 14.1937 23.5109C14.3195 23.5184 14.4453 23.4969 14.5615 23.4481C14.6777 23.3994 14.7812 23.3246 14.864 23.2297C15.0344 22.9968 15.1174 22.7114 15.0984 22.4234C15.1169 22.1341 15.034 21.8473 14.864 21.6125C14.7823 21.5156 14.6793 21.4389 14.563 21.3884C14.4467 21.338 14.3203 21.3152 14.1937 21.3219Z" fill="#F2F2F2"/>
<path d="M17.7468 21.4625C17.6455 21.3962 17.5253 21.3649 17.4046 21.3734C17.3102 21.3769 17.218 21.4035 17.1363 21.4509C17.0545 21.4983 16.9857 21.5651 16.9358 21.6453C16.7963 21.8662 16.7291 22.1251 16.7437 22.3859V23.8203H16.2749V21.0078H16.7437V21.5938C16.7952 21.4125 16.8977 21.2498 17.039 21.125C17.1612 21.0189 17.3177 20.9606 17.4796 20.9609C17.5702 20.9569 17.6608 20.9696 17.7468 20.9984V21.4625Z" fill="#F2F2F2"/>
<path d="M20.4937 22.5313H18.5109C18.4976 22.7933 18.5829 23.0508 18.75 23.2531C18.8368 23.3398 18.941 23.4071 19.0557 23.4508C19.1704 23.4944 19.2931 23.5133 19.4156 23.5063C19.7333 23.5031 20.0407 23.3924 20.2875 23.1922V23.6141C19.9976 23.8051 19.6544 23.8987 19.3078 23.8813C19.1328 23.8901 18.9581 23.8602 18.7961 23.7938C18.634 23.7273 18.4886 23.626 18.3703 23.4969C18.1262 23.1925 18.0043 22.8082 18.0281 22.4188C18.0112 22.0284 18.1436 21.6463 18.3984 21.35C18.5143 21.2161 18.6586 21.1096 18.8207 21.0383C18.9829 20.9669 19.1588 20.9325 19.3359 20.9375C19.4958 20.9286 19.6556 20.956 19.8034 21.0177C19.9511 21.0794 20.083 21.1738 20.189 21.2938C20.4049 21.5784 20.5113 21.931 20.489 22.2875L20.4937 22.5313ZM20.025 22.1516C20.0345 21.9344 19.9682 21.7206 19.8375 21.5469C19.7733 21.4744 19.6936 21.4174 19.6043 21.38C19.515 21.3427 19.4185 21.326 19.3218 21.3313C19.221 21.33 19.1209 21.3498 19.0281 21.3894C18.9353 21.4289 18.8518 21.4873 18.7828 21.5609C18.6285 21.7242 18.5314 21.9331 18.5062 22.1563L20.025 22.1516Z" fill="#F2F2F2"/>
</g>
<defs>
<clipPath id="clip0_2_23">
<rect width="30" height="30" fill="white" transform="translate(0 0.5)"/>
</clipPath>
</defs>
</svg>
