<svg width="1em" height="1em" viewBox="0 0 28 25" fill="none" xmlns="http://www.w3.org/2000/svg">
<g clip-path="url(#clip0_2_24)">
<path d="M14 14.9043C15.3784 14.9043 16.4957 13.8278 16.4957 12.5C16.4957 11.1721 15.3784 10.0957 14 10.0957C12.6217 10.0957 11.5044 11.1721 11.5044 12.5C11.5044 13.8278 12.6217 14.9043 14 14.9043Z" fill="#61DAFB"/>
<path d="M13.9999 17.4258C21.3958 17.4258 27.3913 15.2204 27.3913 12.5C27.3913 9.7795 21.3958 7.57413 13.9999 7.57413C6.60413 7.57413 0.608643 9.7795 0.608643 12.5C0.608643 15.2204 6.60413 17.4258 13.9999 17.4258Z" stroke="#61DAFB"/>
<path d="M9.57202 14.9629C13.2699 21.1334 18.2502 25.0328 20.6957 23.6726C23.1412 22.3124 22.126 16.2075 18.4281 10.0371C14.7302 3.86659 9.74993 -0.0328707 7.3044 1.32736C4.85887 2.6876 5.87412 8.79244 9.57202 14.9629Z" stroke="#61DAFB"/>
<path d="M9.57183 10.0371C5.87393 16.2075 4.85867 22.3124 7.30421 23.6726C9.74974 25.0328 14.73 21.1334 18.4279 14.9629C22.1258 8.79244 23.141 2.68759 20.6955 1.32736C18.25 -0.032876 13.2697 3.86659 9.57183 10.0371Z" stroke="#61DAFB"/>
</g>
<defs>
<clipPath id="clip0_2_24">
<rect width="28" height="24" fill="white" transform="translate(0 0.5)"/>
</clipPath>
</defs>
</svg>
