<svg width="1em" height="1em" viewBox="0 0 24 25" fill="none" xmlns="http://www.w3.org/2000/svg">
<g clip-path="url(#clip0_34_141)">
<path d="M9.0001 15.5V9.49999L16.7451 20.15C14.8285 21.3405 12.5346 21.7676 10.318 21.3469C8.10131 20.9261 6.12354 19.6881 4.77647 17.8781C3.4294 16.0682 2.81129 13.8182 3.04461 11.5741C3.27792 9.32994 4.34564 7.25528 6.03623 5.76111C7.72682 4.26694 9.91696 3.46227 12.1728 3.50649C14.4286 3.55072 16.5855 4.44062 18.2162 5.9999C19.847 7.55918 20.8325 9.67409 20.9777 11.9257C21.1229 14.1772 20.4171 16.4012 19.0001 18.157" stroke="white" stroke-width="1" stroke-linecap="round" stroke-linejoin="round"/>
<path d="M15 12.5V9.5" stroke="white" stroke-width="1" stroke-linecap="round" stroke-linejoin="round"/>
</g>
<defs>
<clipPath id="clip0_34_141">
<rect width="24" height="24" fill="white" transform="translate(0 0.5)"/>
</clipPath>
</defs>
</svg>
